<?xml version="1.0" encoding="UTF-8" standalone="no"?>
<svg
   xmlns:dc="http://purl.org/dc/elements/1.1/"
   xmlns:cc="http://creativecommons.org/ns#"
   xmlns:rdf="http://www.w3.org/1999/02/22-rdf-syntax-ns#"
   xmlns:svg="http://www.w3.org/2000/svg"
   xmlns="http://www.w3.org/2000/svg"
   xmlns:sodipodi="http://sodipodi.sourceforge.net/DTD/sodipodi-0.dtd"
   xmlns:inkscape="http://www.inkscape.org/namespaces/inkscape"
   width="112.15966"
   height="47.212299"
   viewBox="0 0 112.15966 47.212299"
   fill="none"
   version="1.1"
   id="svg4"
   sodipodi:docname="IVLAB.svg"
   inkscape:version="1.0.2-2 (e86c870879, 2021-01-15)"
   inkscape:export-filename="C:\Users\scoot\dev\Sandbox-herma582\Packages\IVLab-Utilities-UnityPackage\Documentation\resources\IVLAB.png"
   inkscape:export-xdpi="200"
   inkscape:export-ydpi="200">
  <metadata
     id="metadata10">
    <rdf:RDF>
      <cc:Work
         rdf:about="">
        <dc:format>image/svg+xml</dc:format>
        <dc:type
           rdf:resource="http://purl.org/dc/dcmitype/StillImage" />
        <dc:title></dc:title>
      </cc:Work>
    </rdf:RDF>
  </metadata>
  <defs
     id="defs8" />
  <sodipodi:namedview
     pagecolor="#ffffff"
     bordercolor="#666666"
     borderopacity="1"
     objecttolerance="10"
     gridtolerance="10"
     guidetolerance="10"
     inkscape:pageopacity="0"
     inkscape:pageshadow="2"
     inkscape:window-width="1920"
     inkscape:window-height="1177"
     id="namedview6"
     showgrid="false"
     inkscape:zoom="4.0923109"
     inkscape:cx="87.063383"
     inkscape:cy="31.520734"
     inkscape:window-x="-8"
     inkscape:window-y="-8"
     inkscape:window-maximized="1"
     inkscape:current-layer="svg4" />
  <path
     d="m 57.915988,0 h 6.031009 V 17.88859 H 57.915988 Z M 85.965542,0 78.401234,17.88859 H 72.472435 L 64.908127,0 H 71.39913 L 75.666824,10.452049 80.036761,0 Z M 57.915988,28.475714 h 6.031009 v 13.212002 h 8.075425 v 4.676588 H 57.915988 Z m 28.211657,14.770865 h -6.797667 l -1.201093,3.117725 H 71.99565 l 7.819867,-17.88859 h 5.928798 l 7.819868,17.88859 h -6.235445 z m -1.661088,-4.344373 -1.737754,-4.497702 -1.737737,4.497702 z M 108.8375,37.011127 c 1.05651,0.391724 1.87428,0.962698 2.45329,1.712193 0.57937,0.749496 0.86887,1.652688 0.86887,2.708844 0,1.56726 -0.64727,2.78551 -1.94218,3.654383 -1.29456,0.851717 -3.16884,1.277757 -5.62213,1.277757 H 94.526627 v -17.88859 h 9.557623 c 2.38538,0 4.18263,0.425932 5.39212,1.277757 1.22665,0.851826 1.83998,1.984795 1.83998,3.398832 0,0.834814 -0.21285,1.584419 -0.63889,2.248853 -0.40887,0.664433 -1.0222,1.201089 -1.83996,1.609971 z m -8.38209,-4.318816 v 2.657735 h 2.81107 c 1.31208,0 1.96774,-0.442944 1.96774,-1.328867 0,-0.885924 -0.65566,-1.328868 -1.96774,-1.328868 z m 3.62884,9.455396 c 1.32886,0 1.99329,-0.468388 1.99329,-1.405531 0,-0.937144 -0.66443,-1.405533 -1.99329,-1.405533 h -3.62884 v 2.811064 z"
     fill="#000000"
     id="path2"
     style="fill:#ffffff;fill-opacity:1;stroke-width:0.365073" />
  <circle
     cx="11.164767"
     cy="3.4126782"
     r="7.9626327"
     fill="#000000"
     id="circle2"
     transform="rotate(30)"
     style="fill:#ffffff;fill-opacity:1;stroke-width:0.318505" />
  <path
     fill-rule="evenodd"
     clip-rule="evenodd"
     d="M 13.11862,34.134345 32.578201,0.578289 45.92487,0.5010259 c 2.216604,-0.012798 3.608432,2.387228 2.496325,4.304535 L 24.657575,45.783808 c -1.112091,1.917296 -3.885866,1.901349 -4.975825,-0.02839 z"
     fill="#000000"
     id="path4"
     style="fill:#ffffff;fill-opacity:1;stroke-width:0.318505" />
</svg>
